HIERARCHY
ROOT Hips
{
	OFFSET 0.00000 0.00000 0.00000
	CHANNELS 6 Xposition Yposition Zposition Zrotation Yrotation Xrotation 
	JOINT LHipJoint
	{
		OFFSET 0 0 0
		CHANNELS 3 Zrotation Yrotation Xrotation
		JOINT LeftUpLeg
		{
			OFFSET 1.37590 -1.78394 0.89329
			CHANNELS 3 Zrotation Yrotation Xrotation
			JOINT LeftLeg
			{
				OFFSET 2.47928 -6.81178 0.00000
				CHANNELS 3 Zrotation Yrotation Xrotation
				JOINT LeftFoot
				{
					OFFSET 2.63345 -7.23535 0.00000
					CHANNELS 3 Zrotation Yrotation Xrotation
					JOINT LeftToeBase
					{
						OFFSET 0.23938 -0.65768 2.27012
						CHANNELS 3 Zrotation Yrotation Xrotation
						End Site
						{
							OFFSET 0.00000 -0.00000 1.18363
						}
					}
				}
			}
		}
	}
	JOINT RHipJoint
	{
		OFFSET 0 0 0
		CHANNELS 3 Zrotation Yrotation Xrotation
		JOINT RightUpLeg
		{
			OFFSET -1.33617 -1.78394 0.89329
			CHANNELS 3 Zrotation Yrotation Xrotation
			JOINT RightLeg
			{
				OFFSET -2.56922 -7.05888 0.00000
				CHANNELS 3 Zrotation Yrotation Xrotation
				JOINT RightFoot
				{
					OFFSET -2.56568 -7.04915 0.00000
					CHANNELS 3 Zrotation Yrotation Xrotation
					JOINT RightToeBase
					{
						OFFSET -0.27533 -0.75646 2.18105
						CHANNELS 3 Zrotation Yrotation Xrotation
						End Site
						{
							OFFSET -0.00000 -0.00000 1.15233
						}
					}
				}
			}
		}
	}
	JOINT LowerBack
	{
		OFFSET 0 0 0
		CHANNELS 3 Zrotation Yrotation Xrotation
		JOINT Spine
		{
			OFFSET 0.06190 2.15152 -0.00935
			CHANNELS 3 Zrotation Yrotation Xrotation
			JOINT Spine1
			{
				OFFSET 0.06334 2.15332 0.00872
				CHANNELS 3 Zrotation Yrotation Xrotation
				JOINT Neck
				{
					OFFSET 0 0 0
					CHANNELS 3 Zrotation Yrotation Xrotation
					JOINT Neck1
					{
						OFFSET -0.04202 1.66908 0.23524
						CHANNELS 3 Zrotation Yrotation Xrotation
						JOINT Head
						{
							OFFSET 0.07510 1.69357 -0.24440
							CHANNELS 3 Zrotation Yrotation Xrotation
							End Site
							{
								OFFSET 0.02556 1.71719 -0.11000
							}
						}
					}
				}
				JOINT LeftShoulder
				{
					OFFSET 0 0 0
					CHANNELS 3 Zrotation Yrotation Xrotation
					JOINT LeftArm
					{
						OFFSET 3.67168 1.26306 -0.41342
						CHANNELS 3 Zrotation Yrotation Xrotation
						JOINT LeftForeArm
						{
							OFFSET 4.68510 -0.00000 -0.00000
							CHANNELS 3 Zrotation Yrotation Xrotation
							JOINT LeftHand
							{
								OFFSET 3.39626 -0.00000 -0.00000
								CHANNELS 3 Zrotation Yrotation Xrotation
								JOINT LeftFingerBase
								{
									OFFSET 0 0 0
									CHANNELS 3 Zrotation Yrotation Xrotation
									JOINT LeftHandIndex1
									{
										OFFSET 0.48608 -0.00000 -0.00000
										CHANNELS 3 Zrotation Yrotation Xrotation
										End Site
										{
											OFFSET 0.39189 -0.00000 -0.00000
										}
									}
								}
								JOINT LThumb
								{
									OFFSET 0 0 0
									CHANNELS 3 Zrotation Yrotation Xrotation
									End Site
									{
										OFFSET 0.39787 -0.00000 0.39787
									}
								}
							}
						}
					}
				}
				JOINT RightShoulder
				{
					OFFSET 0 0 0
					CHANNELS 3 Zrotation Yrotation Xrotation
					JOINT RightArm
					{
						OFFSET -3.04136 1.42992 -0.76390
						CHANNELS 3 Zrotation Yrotation Xrotation
						JOINT RightForeArm
						{
							OFFSET -5.55576 -0.00000 -0.00000
							CHANNELS 3 Zrotation Yrotation Xrotation
							JOINT RightHand
							{
								OFFSET -3.32774 -0.00000 -0.00000
								CHANNELS 3 Zrotation Yrotation Xrotation
								JOINT RightFingerBase
								{
									OFFSET 0 0 0
									CHANNELS 3 Zrotation Yrotation Xrotation
									JOINT RightHandIndex1
									{
										OFFSET -0.50763 -0.00000 -0.00000
										CHANNELS 3 Zrotation Yrotation Xrotation
										End Site
										{
											OFFSET -0.40926 -0.00000 -0.00000
										}
									}
								}
								JOINT RThumb
								{
									OFFSET 0 0 0
									CHANNELS 3 Zrotation Yrotation Xrotation
									End Site
									{
										OFFSET -0.41551 -0.00000 0.41551
									}
								}
							}
						}
					}
				}
			}
		}
	}
}
MOTION
Frames: 11
Frame Time: .0083333
27.9475 17.7091 6.4145 0 0 0 0 0 0 -21 0 0 0 0 0 0 0 0 0 0 0 0 0 0 21 0 0 0 0 0 0 0 0 0 0 0 0 0 0 0 0 0 0 0 0 0 0 -16 0 0 21 0 0 11 0 0 0 -8 0 0 0 0 0 0 0 0 0 0 0 0 0 0 0 0 0 0 0 0 8 0 0 0 0 0 0 0 0 0 0 0 0 0 0 0 0 0
27.9475 17.7091 6.4145 -37.3553 -86.9367 45.9750 0.0000 0.0000 0.0000 -16.9550 -3.3136 -0.2823 3.7239 11.7836 34.9706 0.1963 -2.6028 9.7468 1.7054 -8.2233 -23.3945 0.0000 0.0000 0.0000 20.5413 13.7965 -25.6723 -1.0361 -6.4742 18.1667 0.3248 -10.3859 -0.9846 -1.5278 -7.8042 22.1209 0.5393 -1.3337 -0.7463 4.6456 -1.8117 -2.0743 4.4984 -0.9165 -1.5791 -4.4186 -2.5957 -14.1560 5.6421 -3.5323 12.8979 2.1864 -1.4787 6.4269 -0.0000 0.0000 0.0000 -97.5959 2.0896 9.0912 9.4958 -15.9471 -1.3331 -0.0000 -0.0000 51.1449 7.9053 11.2162 1.5471 -7.1250 0.0000 -0.0000 -16.8874 40.7031 1.8493 -0.0000 0.0000 0.0000 82.7180 -4.4704 -11.6959 -6.9915 11.9053 -0.7299 0.0000 0.0000 35.4324 -14.0679 -24.3409 5.8968 7.1250 -0.0000 -0.0000 16.1545 -54.2493 -3.7464
27.7923 17.7318 6.3940 -41.0106 -86.3415 49.5788 0.0000 0.0000 0.0000 -15.9342 -3.6399 -1.3636 4.1283 12.3292 36.9066 0.3610 -2.3894 12.4797 1.2654 -7.1303 -20.1021 0.0000 0.0000 0.0000 21.4100 13.7625 -24.9390 -1.0356 -6.4727 18.1623 0.3331 -10.3674 -1.6503 -1.5301 -7.8098 22.1378 1.0851 -1.3966 -1.2640 4.7711 -1.9318 -1.7681 4.2976 -0.9922 -0.9778 -4.4271 -2.6918 -14.1208 5.7444 -3.6819 12.9250 2.2061 -1.5439 6.4397 -0.0000 0.0000 0.0000 -97.1091 1.2764 5.0666 8.7221 -14.7165 -1.1285 -0.0000 -0.0000 55.3578 6.8196 11.0606 1.3143 -7.1250 0.0000 -0.0000 -17.7653 40.4589 2.0636 -0.0000 0.0000 0.0000 82.5408 -4.2077 -10.9421 -7.1720 12.2019 -0.7676 0.0000 0.0000 33.9493 -13.9750 -24.3354 5.8553 7.1250 -0.0000 -0.0000 16.2443 -54.2267 -3.7590
27.6367 17.7528 6.3762 -41.7662 -85.7361 50.2662 0.0000 0.0000 0.0000 -15.0598 -4.0530 -2.4337 4.5440 12.8511 38.8137 0.5453 -2.1399 14.8900 0.9030 -6.0558 -16.9463 0.0000 0.0000 0.0000 22.1797 13.3637 -24.3116 -1.0322 -6.4622 18.1316 0.3256 -10.1597 -2.1790 -1.4934 -7.7197 21.8660 1.4982 -1.4922 -1.2489 4.9200 -2.0644 -1.8434 4.2210 -1.0652 -1.0639 -4.4931 -2.7849 -13.7848 5.7745 -3.8306 13.1791 2.2149 -1.6227 6.4732 0.0000 -0.0000 0.0000 -96.7579 1.0293 0.5466 8.1120 -13.7342 -0.9785 -0.0000 -0.0000 59.2136 5.1740 11.4659 1.0312 -7.1250 0.0000 -0.0000 -19.2734 40.7001 2.1339 0.0000 -0.0000 0.0000 82.2590 -4.6944 -9.0398 -7.5480 12.8175 -0.8490 0.0000 0.0000 31.3883 -13.7391 -24.6228 5.8165 7.1250 -0.0000 -0.0000 16.6281 -54.4600 -3.9474
27.4948 17.7688 6.3593 -43.3500 -85.2082 51.6903 0.0000 0.0000 0.0000 -14.1828 -4.2853 -3.5626 4.9761 13.3568 40.7193 0.7097 -1.6012 16.5710 0.5725 -4.8455 -13.4686 0.0000 0.0000 0.0000 22.9439 13.0914 -23.5623 -1.0232 -6.4348 18.0514 0.3215 -10.0359 -2.6953 -1.4787 -7.6833 21.7563 1.9074 -1.5327 -1.1355 5.0555 -2.1218 -1.8145 4.1344 -1.1008 -1.1040 -4.5773 -2.9123 -13.5742 5.8437 -4.0227 13.4025 2.2340 -1.7181 6.5220 -0.0000 -0.0000 0.0000 -96.2592 0.6408 -3.6850 7.5727 -12.8579 -0.8545 -0.0000 -0.0000 62.9619 4.3281 11.7048 0.8796 -7.1250 0.0000 -0.0000 -20.0592 40.8497 2.1515 -0.0000 -0.0000 0.0000 82.0020 -4.8474 -7.3912 -7.9546 13.4792 -0.9415 0.0000 0.0000 29.1740 -13.4983 -25.0432 5.8021 7.1250 -0.0000 -0.0000 17.0922 -54.8192 -4.2140
27.3485 17.7861 6.3426 -44.4429 -84.6914 52.6264 0.0000 0.0000 0.0000 -13.3440 -4.5580 -4.6400 5.4223 13.8441 42.6165 0.8565 -1.3332 18.0142 0.3764 -3.9404 -10.9091 0.0000 0.0000 0.0000 23.6996 12.7421 -22.8343 -1.0138 -6.4062 17.9678 0.3122 -9.8575 -3.1809 -1.4550 -7.6243 21.5785 2.3065 -1.5817 -1.1015 5.1770 -2.1947 -1.7630 4.0360 -1.1443 -1.0761 -4.6668 -3.0289 -13.3352 5.9343 -4.2035 13.5994 2.2623 -1.8073 6.5577 0.0000 -0.0000 0.0000 -95.7647 0.2176 -8.6505 7.0712 -12.0364 -0.7464 -0.0000 -0.0000 67.3859 3.3849 11.9259 0.7002 -7.1250 0.0000 -0.0000 -20.9223 40.9712 2.1874 0.0000 -0.0000 0.0000 81.7511 -5.0286 -5.8920 -8.3607 14.1358 -1.0384 0.0000 0.0000 27.1072 -13.3132 -25.3634 5.7879 7.1250 -0.0000 -0.0000 17.4526 -55.0911 -4.4239
27.2044 17.8017 6.3269 -45.3890 -84.2414 53.3840 0.0000 0.0000 0.0000 -12.5785 -4.7846 -5.7045 5.8781 14.3092 44.4906 0.9394 -1.1753 18.7727 0.2740 -3.3672 -9.3027 0.0000 0.0000 0.0000 24.4064 12.3579 -22.0845 -1.0015 -6.3682 17.8566 0.2999 -9.6546 -3.6208 -1.4281 -7.5566 21.3752 2.6582 -1.6147 -0.9996 5.2798 -2.2410 -1.7175 3.9478 -1.1733 -1.0934 -4.7674 -3.1503 -13.0863 6.0331 -4.3927 13.8105 2.2945 -1.9010 6.5974 -0.0000 0.0000 0.0000 -95.2342 -0.1618 -13.6677 6.6648 -11.3662 -0.6640 -0.0000 -0.0000 71.7186 2.6052 12.1933 0.5506 -7.1250 0.0000 -0.0000 -21.6640 41.1485 2.1733 -0.0000 0.0000 0.0000 81.4993 -5.2160 -4.3957 -8.8105 14.8579 -1.1510 0.0000 0.0000 25.1249 -13.1488 -25.6407 5.7723 7.1250 -0.0000 -0.0000 17.7727 -55.3246 -4.6111
27.0623 17.8159 6.3119 -46.2904 -83.8669 54.0763 0.0000 0.0000 0.0000 -11.8866 -4.9547 -6.7604 6.3387 14.7487 46.3264 0.9445 -1.1495 18.8110 0.2396 -3.1500 -8.6966 0.0000 0.0000 0.0000 25.0578 11.9815 -21.3067 -0.9861 -6.3206 17.7175 0.2866 -9.4559 -4.0297 -1.4009 -7.4873 21.1675 2.9577 -1.6303 -0.8894 5.3603 -2.2633 -1.6454 3.8656 -1.1893 -1.0883 -4.8700 -3.2722 -12.8666 6.1394 -4.5839 14.0267 2.3292 -1.9948 6.6444 0.0000 -0.0000 0.0000 -94.6646 -0.5350 -18.4915 6.3528 -10.8493 -0.6039 -0.0000 -0.0000 75.7325 2.0258 12.5009 0.4387 -7.1250 0.0000 -0.0000 -22.2534 41.3794 2.1047 0.0000 -0.0000 0.0000 81.2524 -5.3447 -2.9686 -9.2891 15.6199 -1.2768 0.0000 0.0000 23.3137 -13.0206 -25.8159 5.7505 7.1250 -0.0000 -0.0000 18.0010 -55.4669 -4.7362
26.9217 17.8288 6.2972 -47.1222 -83.5754 54.6945 0.0000 0.0000 0.0000 -11.2761 -5.0662 -7.8159 6.7968 15.1584 48.1016 0.8749 -1.2488 18.1645 0.2560 -3.2551 -8.9898 0.0000 0.0000 0.0000 25.6401 11.6280 -20.5165 -0.9690 -6.2671 17.5614 0.2732 -9.2686 -4.4189 -1.3753 -7.4212 20.9694 3.1935 -1.6306 -0.7890 5.4163 -2.2654 -1.5525 3.7929 -1.1937 -1.0557 -4.9636 -3.3896 -12.6693 6.2392 -4.7697 14.2447 2.3606 -2.0856 6.6956 0.0000 0.0000 0.0000 -94.0668 -0.8792 -22.8121 6.1386 -10.4932 -0.5642 -0.0000 -0.0000 79.0800 1.6116 12.8954 0.3597 -7.1250 0.0000 -0.0000 -22.7373 41.7039 1.9621 0.0000 0.0000 0.0000 81.0096 -5.4212 -1.6023 -9.7932 16.4154 -1.4159 0.0000 0.0000 21.6843 -12.9329 -25.8623 5.7202 7.1250 -0.0000 -0.0000 18.1159 -55.4939 -4.7799
26.7826 17.8406 6.2828 -47.9669 -83.3670 55.3377 0.0000 0.0000 0.0000 -10.7395 -5.1143 -8.8836 7.2432 15.5333 49.7883 0.7530 -1.4296 16.9693 0.3112 -3.5865 -9.9161 0.0000 0.0000 0.0000 26.1536 11.3446 -19.7170 -0.9509 -6.2100 17.3950 0.2612 -9.1194 -4.8040 -1.3531 -7.3636 20.7971 3.3653 -1.6139 -0.6951 5.4528 -2.2444 -1.4549 3.7354 -1.1854 -1.0139 -5.0438 -3.4999 -12.5051 6.3163 -4.9454 14.4807 2.3833 -2.1720 6.7572 0.0000 0.0000 0.0000 -93.4544 -1.1587 -26.2960 6.0149 -10.2870 -0.5419 -0.0000 -0.0000 81.4323 1.3733 13.3715 0.3176 -7.1250 0.0000 -0.0000 -23.1068 42.1190 1.7456 0.0000 0.0000 0.0000 80.7642 -5.4573 -0.2934 -10.3192 17.2373 -1.5682 0.0000 0.0000 20.2414 -12.8938 -25.8199 5.6938 7.1250 -0.0000 -0.0000 18.1305 -55.4458 -4.7625
26.6451 17.8516 6.2684 -48.8235 -83.2286 56.0159 0.0000 0.0000 0.0000 -10.2640 -5.1012 -9.9754 7.6690 15.8703 51.3614 0.6136 -1.5918 15.4574 0.3761 -3.9390 -10.9052 0.0000 0.0000 0.0000 26.6071 11.1365 -18.9226 -0.9323 -6.1508 17.2225 0.2509 -9.0124 -5.1853 -1.3324 -7.3093 20.6351 3.4794 -1.5840 -0.6208 5.4739 -2.2065 -1.3530 3.6935 -1.1675 -0.9557 -5.1093 -3.6010 -12.3693 6.3684 -5.1066 14.7219 2.3965 -2.2520 6.8237 -0.0000 0.0000 0.0000 -92.8396 -1.3672 -28.7492 5.9717 -10.2149 -0.5342 -0.0000 -0.0000 82.6071 1.3191 13.9330 0.3177 -7.1250 0.0000 -0.0000 -23.3573 42.6292 1.4531 -0.0000 0.0000 0.0000 80.5152 -5.4444 0.9525 -10.8637 18.0790 -1.7334 0.0000 0.0000 18.9757 -12.9009 -25.6987 5.6722 7.1250 -0.0000 -0.0000 18.0540 -55.3316 -4.6907
